<svg width="135" height="21" viewBox="0 0 135 21" fill="none" xmlns="http://www.w3.org/2000/svg">
<path d="M8.71875 15.5703C8.45443 15.5703 8.22656 15.5202 8.03516 15.4199C7.85286 15.3197 7.69336 15.1921 7.55664 15.0371C7.41992 14.8822 7.30143 14.709 7.20117 14.5176C7.11003 14.3262 7.03255 14.1393 6.96875 13.957L4.37109 6.46484H4.01562V17.8672C4.01562 18.1589 3.9974 18.4323 3.96094 18.6875C3.92448 18.9427 3.84245 19.1706 3.71484 19.3711C3.59635 19.5625 3.41406 19.7174 3.16797 19.8359C2.93099 19.9453 2.60286 20 2.18359 20C1.70964 20 1.33594 19.9453 1.0625 19.8359C0.789062 19.7174 0.583984 19.5625 0.447266 19.3711C0.310547 19.1706 0.223958 18.9427 0.1875 18.6875C0.151042 18.4323 0.132812 18.1589 0.132812 17.8672V3.97656C0.132812 3.58464 0.141927 3.20182 0.160156 2.82812C0.1875 2.45443 0.264974 2.12174 0.392578 1.83008C0.520182 1.53841 0.720703 1.30599 0.994141 1.13281C1.27669 0.950521 1.67318 0.859375 2.18359 0.859375H4.04297C4.35286 0.859375 4.61263 0.873047 4.82227 0.900391C5.04102 0.91862 5.24154 0.996094 5.42383 1.13281C5.60612 1.26042 5.78385 1.47005 5.95703 1.76172C6.13932 2.05339 6.33529 2.4681 6.54492 3.00586C6.76367 3.53451 7.01432 4.21354 7.29688 5.04297C7.57943 5.86328 7.92578 6.875 8.33594 8.07812L8.69141 9.17188H9.01953L9.45703 7.80469C9.83073 6.65625 10.1497 5.68555 10.4141 4.89258C10.6784 4.09961 10.9108 3.44792 11.1113 2.9375C11.3118 2.41797 11.4896 2.02148 11.6445 1.74805C11.8086 1.46549 11.9772 1.26042 12.1504 1.13281C12.3327 0.996094 12.5286 0.91862 12.7383 0.900391C12.9479 0.873047 13.2031 0.859375 13.5039 0.859375H15.5C16.0104 0.859375 16.4023 0.950521 16.6758 1.13281C16.9583 1.30599 17.1634 1.53841 17.291 1.83008C17.4186 2.12174 17.4915 2.45443 17.5098 2.82812C17.5371 3.20182 17.5508 3.58464 17.5508 3.97656V17.8672C17.5508 18.1589 17.5326 18.4323 17.4961 18.6875C17.4596 18.9427 17.373 19.1706 17.2363 19.3711C17.0996 19.5625 16.8945 19.7174 16.6211 19.8359C16.3477 19.9453 15.974 20 15.5 20C15.0807 20 14.748 19.9453 14.502 19.8359C14.265 19.7174 14.0827 19.5625 13.9551 19.3711C13.8366 19.1706 13.7591 18.9427 13.7227 18.6875C13.6862 18.4323 13.668 18.1589 13.668 17.8672V6.46484H13.2852L10.7148 13.957C10.6419 14.1393 10.5599 14.3262 10.4688 14.5176C10.3776 14.709 10.2637 14.8822 10.127 15.0371C9.99023 15.1921 9.83073 15.3197 9.64844 15.4199C9.46615 15.5202 9.2474 15.5703 8.99219 15.5703H8.71875Z" fill="black"/>
<path d="M32.2617 16.9102C32.2617 17.293 32.248 17.6712 32.2207 18.0449C32.1934 18.4095 32.1113 18.7376 31.9746 19.0293C31.8379 19.321 31.6328 19.5579 31.3594 19.7402C31.0859 19.9134 30.7031 20 30.2109 20C29.7096 20 29.3177 19.918 29.0352 19.7539C28.7526 19.5807 28.543 19.3757 28.4062 19.1387C28.2695 18.8926 28.1829 18.6374 28.1465 18.373C28.1191 18.1087 28.1055 17.8854 28.1055 17.7031C28.0234 17.9674 27.9049 18.2363 27.75 18.5098C27.6042 18.7832 27.4128 19.0293 27.1758 19.248C26.9388 19.4668 26.6517 19.6491 26.3145 19.7949C25.9863 19.9316 25.599 20 25.1523 20C24.651 20 24.1497 19.918 23.6484 19.7539C23.1471 19.5898 22.696 19.3164 22.2949 18.9336C21.8939 18.5508 21.5658 18.054 21.3105 17.4434C21.0645 16.8236 20.9414 16.0625 20.9414 15.1602V11.1953C20.9414 10.2839 21.0645 9.52279 21.3105 8.91211C21.5658 8.29232 21.8939 7.79557 22.2949 7.42188C22.696 7.03906 23.1471 6.76562 23.6484 6.60156C24.1497 6.4375 24.651 6.35547 25.1523 6.35547C25.599 6.35547 25.9863 6.42383 26.3145 6.56055C26.6517 6.69727 26.9388 6.875 27.1758 7.09375C27.4128 7.3125 27.6042 7.55859 27.75 7.83203C27.9049 8.10547 28.0234 8.37891 28.1055 8.65234C28.1055 8.19661 28.1693 7.81836 28.2969 7.51758C28.4245 7.2168 28.5885 6.97982 28.7891 6.80664C28.9896 6.62435 29.2129 6.5013 29.459 6.4375C29.7142 6.36458 29.9648 6.32812 30.2109 6.32812C30.6667 6.32812 31.0312 6.41927 31.3047 6.60156C31.5781 6.77474 31.7832 7.00716 31.9199 7.29883C32.0658 7.58138 32.1569 7.91406 32.1934 8.29688C32.2389 8.67057 32.2617 9.05339 32.2617 9.44531V16.9102ZM25.1523 14.8047C25.1523 15.0508 25.1615 15.2923 25.1797 15.5293C25.1979 15.7663 25.248 15.9805 25.3301 16.1719C25.4121 16.3633 25.5306 16.5182 25.6855 16.6367C25.8496 16.7461 26.0729 16.8008 26.3555 16.8008C26.7109 16.8008 26.998 16.7233 27.2168 16.5684C27.4447 16.4043 27.6224 16.1582 27.75 15.8301C27.8776 15.4928 27.9642 15.0736 28.0098 14.5723C28.0645 14.0618 28.0964 13.4557 28.1055 12.7539C28.1055 12.4714 28.0781 12.1478 28.0234 11.7832C27.9779 11.4095 27.8913 11.0586 27.7637 10.7305C27.6361 10.4023 27.4583 10.1243 27.2305 9.89648C27.0026 9.66862 26.7109 9.55469 26.3555 9.55469C26.0729 9.55469 25.8496 9.61393 25.6855 9.73242C25.5306 9.8418 25.4121 9.98763 25.3301 10.1699C25.248 10.3522 25.1979 10.5618 25.1797 10.7988C25.1615 11.0267 25.1523 11.2591 25.1523 11.4961V14.8047Z" fill="black"/>
<path d="M44.2656 8.37891C44.2656 9.08984 44.0879 9.60938 43.7324 9.9375C43.3861 10.2656 42.8893 10.4297 42.2422 10.4297C42.151 10.4297 42.0189 10.4388 41.8457 10.457C41.6816 10.4661 41.5039 10.5026 41.3125 10.5664C41.1211 10.6211 40.9251 10.7077 40.7246 10.8262C40.5332 10.9355 40.3555 11.0905 40.1914 11.291C40.0273 11.4824 39.8952 11.7285 39.7949 12.0293C39.6947 12.3301 39.6445 12.6901 39.6445 13.1094V17.0195C39.6445 17.3932 39.6217 17.7578 39.5762 18.1133C39.5397 18.4688 39.4486 18.7878 39.3027 19.0703C39.1569 19.3438 38.9473 19.5671 38.6738 19.7402C38.4004 19.9134 38.0312 20 37.5664 20C37.1107 20 36.7507 19.9134 36.4863 19.7402C36.222 19.5671 36.0169 19.3438 35.8711 19.0703C35.7344 18.7878 35.6432 18.4688 35.5977 18.1133C35.5612 17.7578 35.543 17.3932 35.543 17.0195V9.36328C35.543 8.98047 35.5612 8.61133 35.5977 8.25586C35.6432 7.89128 35.7344 7.56771 35.8711 7.28516C36.0169 7.0026 36.222 6.7793 36.4863 6.61523C36.7507 6.44206 37.1107 6.35547 37.5664 6.35547C38.0312 6.35547 38.3867 6.46029 38.6328 6.66992C38.888 6.87044 39.0749 7.13477 39.1934 7.46289C39.3118 7.7819 39.3802 8.14193 39.3984 8.54297C39.4167 8.9349 39.4258 9.31771 39.4258 9.69141H39.6445C39.7721 9.18099 39.9408 8.7207 40.1504 8.31055C40.36 7.89128 40.5924 7.54036 40.8477 7.25781C41.1029 6.96615 41.3763 6.74284 41.668 6.58789C41.9596 6.43294 42.2513 6.35547 42.543 6.35547C42.8984 6.35547 43.1855 6.39648 43.4043 6.47852C43.6322 6.55143 43.8099 6.66992 43.9375 6.83398C44.0651 6.99805 44.1517 7.20768 44.1973 7.46289C44.2428 7.7181 44.2656 8.02344 44.2656 8.37891Z" fill="black"/>
<path d="M49.8711 15.2695C49.8711 15.4154 49.8848 15.6022 49.9121 15.8301C49.9395 16.0488 50.0033 16.2676 50.1035 16.4863C50.2038 16.696 50.3496 16.8783 50.541 17.0332C50.7415 17.1882 51.0104 17.2656 51.3477 17.2656C51.7487 17.2656 52.0632 17.2201 52.291 17.1289C52.5189 17.0378 52.6875 16.9147 52.7969 16.7598C52.9062 16.5957 52.9746 16.4089 53.002 16.1992C53.0293 15.9805 53.043 15.7526 53.043 15.5156C53.043 15.3971 53.0612 15.265 53.0977 15.1191C53.1432 14.9642 53.2435 14.8229 53.3984 14.6953C53.5534 14.5586 53.7812 14.4492 54.082 14.3672C54.3919 14.276 54.8112 14.2305 55.3398 14.2305C55.8229 14.2305 56.1966 14.2852 56.4609 14.3945C56.7253 14.5039 56.9167 14.6361 57.0352 14.791C57.1628 14.9368 57.2357 15.0918 57.2539 15.2559C57.2721 15.4108 57.2812 15.5339 57.2812 15.625C57.2812 16.2083 57.1901 16.7233 57.0078 17.1699C56.8346 17.6074 56.5977 17.9902 56.2969 18.3184C55.9961 18.6374 55.6497 18.9062 55.2578 19.125C54.8659 19.3438 54.4466 19.5169 54 19.6445C53.5625 19.7721 53.1159 19.8633 52.6602 19.918C52.2044 19.9727 51.7669 20 51.3477 20C50.6276 20 49.9303 19.9043 49.2559 19.7129C48.5814 19.5215 47.9798 19.2207 47.4512 18.8105C46.9316 18.4004 46.5124 17.8763 46.1934 17.2383C45.8743 16.5911 45.7148 15.8164 45.7148 14.9141V11.7148C45.7148 10.849 45.8151 10.1152 46.0156 9.51367C46.2253 8.91211 46.4941 8.41081 46.8223 8.00977C47.1504 7.60872 47.5195 7.29883 47.9297 7.08008C48.3398 6.85221 48.7546 6.68359 49.1738 6.57422C49.5931 6.46484 49.9896 6.39648 50.3633 6.36914C50.7461 6.3418 51.0742 6.32812 51.3477 6.32812C52.1589 6.32812 52.8652 6.39648 53.4668 6.5332C54.0775 6.66992 54.6016 6.85221 55.0391 7.08008C55.4766 7.30794 55.8366 7.57227 56.1191 7.87305C56.4108 8.16471 56.6387 8.47461 56.8027 8.80273C56.9668 9.13086 57.0807 9.45898 57.1445 9.78711C57.2174 10.1152 57.2539 10.4206 57.2539 10.7031C57.2539 10.849 57.2448 11.0221 57.2266 11.2227C57.2083 11.4141 57.1354 11.6009 57.0078 11.7832C56.8893 11.9564 56.6979 12.1068 56.4336 12.2344C56.1693 12.362 55.7956 12.4258 55.3125 12.4258C55.1393 12.4258 54.9206 12.4212 54.6562 12.4121C54.401 12.3939 54.1504 12.3438 53.9043 12.2617C53.6582 12.1797 53.4486 12.0521 53.2754 11.8789C53.1022 11.7057 53.0156 11.4596 53.0156 11.1406C53.0156 10.9219 53.002 10.7122 52.9746 10.5117C52.9564 10.3021 52.8926 10.1198 52.7832 9.96484C52.6738 9.8099 52.5052 9.68685 52.2773 9.5957C52.0586 9.49544 51.7487 9.44531 51.3477 9.44531C51.0104 9.44531 50.7415 9.5 50.541 9.60938C50.3496 9.71875 50.2038 9.85547 50.1035 10.0195C50.0033 10.1836 49.9395 10.3568 49.9121 10.5391C49.8848 10.7214 49.8711 10.8854 49.8711 11.0312V15.2695Z" fill="black"/>
<path d="M71.0352 12.207C71.0352 12.3529 71.026 12.526 71.0078 12.7266C70.9896 12.918 70.9167 13.1048 70.7891 13.2871C70.6706 13.4603 70.4792 13.6107 70.2148 13.7383C69.9505 13.8659 69.5768 13.9297 69.0938 13.9297H63.6523V15.2422C63.6523 15.4609 63.6797 15.6888 63.7344 15.9258C63.7891 16.1628 63.8802 16.3815 64.0078 16.582C64.1445 16.7826 64.3223 16.9466 64.541 17.0742C64.7598 17.2018 65.0286 17.2656 65.3477 17.2656C65.7122 17.2656 65.9902 17.2246 66.1816 17.1426C66.3822 17.0514 66.5371 16.9421 66.6465 16.8145C66.765 16.6868 66.8698 16.5501 66.9609 16.4043C67.0521 16.2585 67.1706 16.1217 67.3164 15.9941C67.4714 15.8665 67.681 15.7617 67.9453 15.6797C68.2188 15.5885 68.5924 15.543 69.0664 15.543C69.2943 15.543 69.513 15.5612 69.7227 15.5977C69.9414 15.6341 70.1328 15.7025 70.2969 15.8027C70.4609 15.903 70.5931 16.0443 70.6934 16.2266C70.7936 16.3997 70.8438 16.6276 70.8438 16.9102C70.8438 17.5026 70.6569 17.9993 70.2832 18.4004C69.9095 18.7923 69.4401 19.1068 68.875 19.3438C68.3099 19.5807 67.6947 19.7493 67.0293 19.8496C66.373 19.9499 65.7578 20 65.1836 20C64.4271 19.9909 63.707 19.8952 63.0234 19.7129C62.3398 19.5306 61.7337 19.2389 61.2051 18.8379C60.6855 18.4368 60.2708 17.9128 59.9609 17.2656C59.651 16.6185 59.4961 15.8255 59.4961 14.8867V11.6875C59.4961 10.8216 59.5964 10.0879 59.7969 9.48633C60.0065 8.88477 60.2754 8.38346 60.6035 7.98242C60.9316 7.58138 61.3008 7.27148 61.7109 7.05273C62.1211 6.82487 62.5358 6.65625 62.9551 6.54688C63.3743 6.4375 63.7708 6.36914 64.1445 6.3418C64.5273 6.31445 64.8555 6.30078 65.1289 6.30078C66.0495 6.30078 66.8333 6.38281 67.4805 6.54688C68.1367 6.71094 68.6836 6.92513 69.1211 7.18945C69.5586 7.45378 69.9049 7.75911 70.1602 8.10547C70.4154 8.45182 70.6068 8.81185 70.7344 9.18555C70.862 9.55013 70.944 9.92383 70.9805 10.3066C71.0169 10.6803 71.0352 11.0312 71.0352 11.3594V12.207ZM63.6523 11.8789H67.0703C67.0703 11.4505 67.0566 11.0723 67.0293 10.7441C67.0111 10.4069 66.9427 10.1243 66.8242 9.89648C66.7148 9.66862 66.5371 9.49544 66.291 9.37695C66.054 9.25846 65.7122 9.19922 65.2656 9.19922C64.8919 9.19922 64.5957 9.25846 64.377 9.37695C64.1673 9.49544 64.0078 9.64583 63.8984 9.82812C63.7891 10.0013 63.7207 10.1882 63.6934 10.3887C63.666 10.5892 63.6523 10.7669 63.6523 10.9219V11.8789Z" fill="black"/>
<path d="M74.0977 3.89453C74.0977 3.51172 74.1159 3.13802 74.1523 2.77344C74.1979 2.40885 74.2936 2.08529 74.4395 1.80273C74.5853 1.52018 74.7949 1.29232 75.0684 1.11914C75.3418 0.945964 75.7109 0.859375 76.1758 0.859375C76.6497 0.859375 77.0234 0.945964 77.2969 1.11914C77.5703 1.29232 77.7754 1.52018 77.9121 1.80273C78.0579 2.08529 78.1491 2.40885 78.1855 2.77344C78.2311 3.13802 78.2539 3.51172 78.2539 3.89453V16.9375C78.2539 17.3203 78.2311 17.6986 78.1855 18.0723C78.1491 18.4368 78.0579 18.765 77.9121 19.0566C77.7754 19.3392 77.5703 19.5671 77.2969 19.7402C77.0234 19.9134 76.6497 20 76.1758 20C75.7109 20 75.3418 19.9134 75.0684 19.7402C74.7949 19.5671 74.5853 19.3392 74.4395 19.0566C74.2936 18.765 74.1979 18.4368 74.1523 18.0723C74.1159 17.6986 74.0977 17.3203 74.0977 16.9375V3.89453Z" fill="black"/>
<path d="M81.2617 11.4688C81.2617 10.6302 81.3757 9.91927 81.6035 9.33594C81.8314 8.7526 82.123 8.26497 82.4785 7.87305C82.8431 7.48112 83.2441 7.17578 83.6816 6.95703C84.1283 6.73828 84.5658 6.57422 84.9941 6.46484C85.4225 6.35547 85.819 6.28711 86.1836 6.25977C86.5573 6.23242 86.849 6.21875 87.0586 6.21875C87.2682 6.21875 87.5553 6.23242 87.9199 6.25977C88.2845 6.28711 88.6719 6.35547 89.082 6.46484C89.5013 6.57422 89.9206 6.73828 90.3398 6.95703C90.7682 7.17578 91.151 7.48112 91.4883 7.87305C91.8346 8.26497 92.1172 8.7526 92.3359 9.33594C92.5547 9.91927 92.6641 10.6302 92.6641 11.4688V14.8594C92.6641 15.6979 92.5547 16.4089 92.3359 16.9922C92.1172 17.5755 91.8346 18.0632 91.4883 18.4551C91.151 18.847 90.7682 19.1523 90.3398 19.3711C89.9206 19.5898 89.5013 19.7539 89.082 19.8633C88.6719 19.9727 88.2845 20.041 87.9199 20.0684C87.5553 20.0957 87.2682 20.1094 87.0586 20.1094C86.849 20.1094 86.5573 20.0957 86.1836 20.0684C85.819 20.041 85.4225 19.9727 84.9941 19.8633C84.5658 19.7539 84.1283 19.5898 83.6816 19.3711C83.2441 19.1523 82.8431 18.847 82.4785 18.4551C82.123 18.0632 81.8314 17.5755 81.6035 16.9922C81.3757 16.4089 81.2617 15.6979 81.2617 14.8594V11.4688ZM85.4727 15.8164C85.4818 16.0807 85.5456 16.3132 85.6641 16.5137C85.7643 16.696 85.9193 16.86 86.1289 17.0059C86.3477 17.1426 86.6576 17.2109 87.0586 17.2109C87.4414 17.2109 87.7331 17.1426 87.9336 17.0059C88.1432 16.86 88.2982 16.696 88.3984 16.5137C88.5078 16.3132 88.5716 16.0807 88.5898 15.8164V10.8672C88.5716 10.5938 88.5078 10.3431 88.3984 10.1152C88.2982 9.93294 88.1432 9.76432 87.9336 9.60938C87.7331 9.44531 87.4414 9.36328 87.0586 9.36328C86.6576 9.36328 86.3477 9.44531 86.1289 9.60938C85.9193 9.76432 85.7643 9.93294 85.6641 10.1152C85.5456 10.3431 85.4818 10.5938 85.4727 10.8672V15.8164Z" fill="black"/>
<path d="M112.242 0.75C113.245 0.75 114.106 0.863932 114.826 1.0918C115.555 1.31966 116.166 1.61589 116.658 1.98047C117.16 2.34505 117.561 2.75977 117.861 3.22461C118.162 3.68034 118.39 4.14518 118.545 4.61914C118.709 5.0931 118.814 5.54883 118.859 5.98633C118.914 6.42383 118.941 6.80208 118.941 7.12109C118.941 7.25781 118.928 7.42643 118.9 7.62695C118.882 7.81836 118.805 8.00521 118.668 8.1875C118.531 8.36979 118.312 8.52474 118.012 8.65234C117.72 8.77995 117.301 8.84375 116.754 8.84375C116.572 8.84375 116.344 8.83464 116.07 8.81641C115.797 8.78906 115.533 8.72982 115.277 8.63867C115.022 8.53841 114.803 8.40169 114.621 8.22852C114.439 8.04622 114.348 7.79557 114.348 7.47656C114.348 6.98438 114.316 6.54232 114.252 6.15039C114.197 5.75846 114.092 5.42578 113.938 5.15234C113.783 4.87891 113.568 4.66927 113.295 4.52344C113.021 4.3776 112.671 4.30469 112.242 4.30469C111.796 4.30469 111.449 4.40039 111.203 4.5918C110.966 4.77409 110.793 4.97461 110.684 5.19336C110.556 5.45768 110.483 5.75391 110.465 6.08203V14.75C110.483 15.151 110.556 15.502 110.684 15.8027C110.793 16.0671 110.966 16.3086 111.203 16.5273C111.449 16.7461 111.796 16.8555 112.242 16.8555C112.671 16.8555 113.021 16.7689 113.295 16.5957C113.568 16.4134 113.783 16.1719 113.938 15.8711C114.092 15.5703 114.197 15.224 114.252 14.832C114.316 14.4401 114.348 14.0299 114.348 13.6016C114.348 13.4648 114.37 13.3236 114.416 13.1777C114.462 13.0319 114.566 12.8997 114.73 12.7812C114.895 12.6536 115.136 12.5488 115.455 12.4668C115.774 12.3848 116.207 12.3438 116.754 12.3438C117.301 12.3438 117.72 12.4076 118.012 12.5352C118.312 12.6536 118.531 12.7949 118.668 12.959C118.805 13.1139 118.882 13.2689 118.9 13.4238C118.928 13.5697 118.941 13.6654 118.941 13.7109C118.941 14.7135 118.773 15.6113 118.436 16.4043C118.098 17.1882 117.62 17.8535 117 18.4004C116.389 18.9473 115.656 19.3665 114.799 19.6582C113.951 19.9408 113.017 20.082 111.996 20.082C111.832 20.082 111.563 20.0684 111.189 20.041C110.825 20.0137 110.415 19.9408 109.959 19.8223C109.503 19.7038 109.034 19.526 108.551 19.2891C108.068 19.0521 107.626 18.724 107.225 18.3047C106.833 17.8763 106.509 17.3477 106.254 16.7188C105.999 16.0807 105.871 15.306 105.871 14.3945V6.76562C105.871 6.01823 105.962 5.35742 106.145 4.7832C106.327 4.20898 106.564 3.71224 106.855 3.29297C107.156 2.86458 107.498 2.50911 107.881 2.22656C108.264 1.9349 108.656 1.69336 109.057 1.50195C109.986 1.06445 111.048 0.813802 112.242 0.75Z" fill="black"/>
<path d="M127.418 0.75C128.421 0.75 129.282 0.863932 130.002 1.0918C130.731 1.31966 131.342 1.61589 131.834 1.98047C132.335 2.34505 132.736 2.75977 133.037 3.22461C133.338 3.68034 133.566 4.14518 133.721 4.61914C133.885 5.0931 133.99 5.54883 134.035 5.98633C134.09 6.42383 134.117 6.80208 134.117 7.12109C134.117 7.25781 134.104 7.42643 134.076 7.62695C134.058 7.81836 133.98 8.00521 133.844 8.1875C133.707 8.36979 133.488 8.52474 133.188 8.65234C132.896 8.77995 132.477 8.84375 131.93 8.84375C131.747 8.84375 131.52 8.83464 131.246 8.81641C130.973 8.78906 130.708 8.72982 130.453 8.63867C130.198 8.53841 129.979 8.40169 129.797 8.22852C129.615 8.04622 129.523 7.79557 129.523 7.47656C129.523 6.98438 129.492 6.54232 129.428 6.15039C129.373 5.75846 129.268 5.42578 129.113 5.15234C128.958 4.87891 128.744 4.66927 128.471 4.52344C128.197 4.3776 127.846 4.30469 127.418 4.30469C126.971 4.30469 126.625 4.40039 126.379 4.5918C126.142 4.77409 125.969 4.97461 125.859 5.19336C125.732 5.45768 125.659 5.75391 125.641 6.08203V14.75C125.659 15.151 125.732 15.502 125.859 15.8027C125.969 16.0671 126.142 16.3086 126.379 16.5273C126.625 16.7461 126.971 16.8555 127.418 16.8555C127.846 16.8555 128.197 16.7689 128.471 16.5957C128.744 16.4134 128.958 16.1719 129.113 15.8711C129.268 15.5703 129.373 15.224 129.428 14.832C129.492 14.4401 129.523 14.0299 129.523 13.6016C129.523 13.4648 129.546 13.3236 129.592 13.1777C129.637 13.0319 129.742 12.8997 129.906 12.7812C130.07 12.6536 130.312 12.5488 130.631 12.4668C130.95 12.3848 131.383 12.3438 131.93 12.3438C132.477 12.3438 132.896 12.4076 133.188 12.5352C133.488 12.6536 133.707 12.7949 133.844 12.959C133.98 13.1139 134.058 13.2689 134.076 13.4238C134.104 13.5697 134.117 13.6654 134.117 13.7109C134.117 14.7135 133.949 15.6113 133.611 16.4043C133.274 17.1882 132.796 17.8535 132.176 18.4004C131.565 18.9473 130.831 19.3665 129.975 19.6582C129.127 19.9408 128.193 20.082 127.172 20.082C127.008 20.082 126.739 20.0684 126.365 20.041C126.001 20.0137 125.59 19.9408 125.135 19.8223C124.679 19.7038 124.21 19.526 123.727 19.2891C123.243 19.0521 122.801 18.724 122.4 18.3047C122.008 17.8763 121.685 17.3477 121.43 16.7188C121.174 16.0807 121.047 15.306 121.047 14.3945V6.76562C121.047 6.01823 121.138 5.35742 121.32 4.7832C121.503 4.20898 121.74 3.71224 122.031 3.29297C122.332 2.86458 122.674 2.50911 123.057 2.22656C123.439 1.9349 123.831 1.69336 124.232 1.50195C125.162 1.06445 126.224 0.813802 127.418 0.75Z" fill="black"/>
</svg>
